<svg id="Layer_1" data-name="Layer 1" xmlns="http://www.w3.org/2000/svg" xmlns:xlink="http://www.w3.org/1999/xlink" viewBox="0 0 730.06 154.16"><defs><style>.cls-1,.cls-2{fill:none;}.cls-1{clip-rule:evenodd;}.cls-2{fill-rule:evenodd;}.cls-3{fill:#007944;}.cls-4{fill:#65b32e;}.cls-5{clip-path:url(#clip-path);}.cls-6{fill:#007a45;}.cls-7{clip-path:url(#clip-path-2);}.cls-8{fill:#a9d3a9;}.cls-9{fill:#fff;}</style><clipPath id="clip-path" transform="translate(-57.94 -630.56)"><polyline class="cls-1" points="57.91 630.56 206.03 630.56 206.03 785.41 57.91 785.41 57.91 630.56"/></clipPath><clipPath id="clip-path-2" transform="translate(-57.94 -630.56)"><polyline class="cls-1" points="57.94 630.56 205.84 630.56 205.84 784.72 57.94 784.72 57.94 630.56"/></clipPath></defs><title>Alternate</title><path class="cls-3" d="M333.22,678.91v.78a50.19,50.19,0,0,1-.69,7.15,61.89,61.89,0,0,1-1.74,7.4,69.85,69.85,0,0,1-2.68,7.31,61.34,61.34,0,0,1-3.49,6.92,58,58,0,0,1-4.17,6.21,38.15,38.15,0,0,1-4.71,5.11l-5.95-3.53a41.69,41.69,0,0,0,2.53-5.28c.76-1.9,1.45-3.9,2.06-6s1.14-4.22,1.58-6.41.8-4.37,1.09-6.53.52-4.29.66-6.39.22-4.09.22-6c0-1.48,0-3.15,0-5s-.12-3.79-.32-5.73a42.51,42.51,0,0,0-1-5.69,17.43,17.43,0,0,0-2-5,10.6,10.6,0,0,0-3.43-3.49,9.62,9.62,0,0,0-5.21-1.32,10.63,10.63,0,0,0-4.74,1,10.16,10.16,0,0,0-3.35,2.59,12.92,12.92,0,0,0-2.2,3.75,27.14,27.14,0,0,0-1.27,4.5,34.94,34.94,0,0,0-.6,4.77c-.1,1.6-.14,3.12-.14,4.54v11.46h17.21v6.78H293.66v14.38H277.81V677.15a35.22,35.22,0,0,1,2-12,29.19,29.19,0,0,1,5.65-9.63,25.92,25.92,0,0,1,8.79-6.41,27.39,27.39,0,0,1,11.44-2.32,24.88,24.88,0,0,1,8,1.25,25.38,25.38,0,0,1,6.81,3.45,27.11,27.11,0,0,1,5.49,5.22,31,31,0,0,1,4,6.59,36.36,36.36,0,0,1,2.46,7.56A35.72,35.72,0,0,1,333.22,678.91Z" transform="translate(-57.94 -630.56)"/><path class="cls-3" d="M384.81,707.22H343.52V648.06h15.85V699.7h25.44Z" transform="translate(-57.94 -630.56)"/><path class="cls-3" d="M413.79,707.22H397.94v-51.6H382.29v-7.56h47.15v7.56H413.79Z" transform="translate(-57.94 -630.56)"/><path class="cls-3" d="M478.83,707.22H437.55V648.06h41.28v7.56H453.4V673.9H473v7.52H453.4v18.24h25.43Z" transform="translate(-57.94 -630.56)"/><path class="cls-3" d="M504.5,707.22H488.65V648.06h28.27a30.6,30.6,0,0,1,7.7,1,19.44,19.44,0,0,1,6.57,3,15.15,15.15,0,0,1,4.55,5.37,17.19,17.19,0,0,1,1.7,8,16.14,16.14,0,0,1-1.5,6.88,20.3,20.3,0,0,1-4,5.75,22.73,22.73,0,0,1-5.73,4.19,21.94,21.94,0,0,1-6.71,2.2q1.56,2.72,3.25,5.13c1.14,1.62,2.28,3.13,3.44,4.54s2.31,2.72,3.45,3.91,2.24,2.28,3.28,3.26a64.61,64.61,0,0,0,7.26,6H520.43a33.6,33.6,0,0,1-4.55-5.63,48.76,48.76,0,0,1-3.69-6.92,41.83,41.83,0,0,1-2.86-9.55H504.5Zm16.85-41.82q0-6-2.82-8.75c-1.87-1.87-4.69-2.8-8.44-2.8H504.5v25.68h5.59a10.51,10.51,0,0,0,5.13-1.17,10.09,10.09,0,0,0,3.49-3.12,13.55,13.55,0,0,0,2-4.5A22.19,22.19,0,0,0,521.35,665.4Z" transform="translate(-57.94 -630.56)"/><path class="cls-3" d="M555,707.22h-7.34V648.06H558l34.93,40.63V648.06h7.31v59.16H589.9L555,666.63Z" transform="translate(-57.94 -630.56)"/><path class="cls-3" d="M668,678.91v.78a50.25,50.25,0,0,1-.7,7.15,60,60,0,0,1-1.73,7.4,69.85,69.85,0,0,1-2.68,7.31,63.06,63.06,0,0,1-3.49,6.92,58,58,0,0,1-4.18,6.21,38.15,38.15,0,0,1-4.71,5.11l-6-3.53a40.38,40.38,0,0,0,2.54-5.28c.76-1.9,1.44-3.9,2.06-6s1.13-4.22,1.57-6.41.81-4.37,1.1-6.53.51-4.29.66-6.39.22-4.09.22-6c0-1.48,0-3.15,0-5s-.12-3.79-.32-5.73a42.52,42.52,0,0,0-1-5.69,17.14,17.14,0,0,0-2-5,10.63,10.63,0,0,0-3.44-3.49,9.57,9.57,0,0,0-5.21-1.32,10.62,10.62,0,0,0-4.73,1A10.06,10.06,0,0,0,632.6,657a12.92,12.92,0,0,0-2.2,3.75,28.16,28.16,0,0,0-1.28,4.5,38.38,38.38,0,0,0-.6,4.77c-.09,1.6-.13,3.12-.13,4.54v11.46h17.2v6.78h-17.2v14.38H612.54V677.15a35.22,35.22,0,0,1,2-12,29,29,0,0,1,5.65-9.63,25.88,25.88,0,0,1,8.78-6.41,27.42,27.42,0,0,1,11.44-2.32,24.9,24.9,0,0,1,8,1.25,25.32,25.32,0,0,1,6.8,3.45,27.11,27.11,0,0,1,5.49,5.22,31,31,0,0,1,4,6.59,36.94,36.94,0,0,1,2.45,7.56A35.72,35.72,0,0,1,668,678.91Z" transform="translate(-57.94 -630.56)"/><path class="cls-3" d="M701.89,707.22H686v-51.6H670.39v-7.56h47.15v7.56H701.89Z" transform="translate(-57.94 -630.56)"/><path class="cls-3" d="M766.92,707.22H725.64V648.06h41.28v7.56H741.49V673.9h19.64v7.52H741.49v18.24h25.43Z" transform="translate(-57.94 -630.56)"/><path class="cls-4" d="M290.9,729.47a64.78,64.78,0,0,1,7.81.52l-.17,6.09c-2.61-.14-4.92-.21-7-.21a8.22,8.22,0,0,0-4.08.84,5.34,5.34,0,0,0-2.19,3.26,31.35,31.35,0,0,0-.73,8.14,38,38,0,0,0,.54,7.38,6.31,6.31,0,0,0,1.91,3.7c.91.77,2.43,1.15,4.55,1.15s4.34-.07,7-.21l.17,6.1a64.78,64.78,0,0,1-7.81.52,16.7,16.7,0,0,1-7.62-1.44,9,9,0,0,1-4.12-5.2q-1.35-3.75-1.35-12a62.39,62.39,0,0,1,.43-7.59,17.58,17.58,0,0,1,1.69-6,8.78,8.78,0,0,1,3.76-3.75A15.75,15.75,0,0,1,290.9,729.47Z" transform="translate(-57.94 -630.56)"/><path class="cls-4" d="M326.91,730v36.24h-6.44V751.68H310v14.55H303.6V730H310v15.34h10.43V730Z" transform="translate(-57.94 -630.56)"/><path class="cls-4" d="M339.87,736.4V745H351v6.4H339.87v8.46h13.3v6.41H333.43V730h19.74v6.41Z" transform="translate(-57.94 -630.56)"/><path class="cls-4" d="M385.44,766.23l-2.18-24.42-5.93,18.59h-5.45l-5.71-18.33-2.27,24.16h-6.61L361.45,730H368l6.69,21,6.66-21h6.73l4,36.24Z" transform="translate(-57.94 -630.56)"/><path class="cls-4" d="M404.07,766.23h-6.44V730h6.44Z" transform="translate(-57.94 -630.56)"/><path class="cls-4" d="M422.27,729.47a64.78,64.78,0,0,1,7.81.52l-.17,6.09q-3.92-.21-7-.21a8.2,8.2,0,0,0-4.07.84,5.26,5.26,0,0,0-2.19,3.26,31.35,31.35,0,0,0-.73,8.14,39,39,0,0,0,.53,7.38,6.42,6.42,0,0,0,1.91,3.7c.92.77,2.44,1.15,4.55,1.15s4.35-.07,7-.21l.17,6.1a64.78,64.78,0,0,1-7.81.52,16.67,16.67,0,0,1-7.62-1.44,8.94,8.94,0,0,1-4.12-5.2q-1.35-3.75-1.35-12a62.39,62.39,0,0,1,.43-7.59,17.58,17.58,0,0,1,1.69-6,8.73,8.73,0,0,1,3.76-3.75A15.75,15.75,0,0,1,422.27,729.47Z" transform="translate(-57.94 -630.56)"/><path class="cls-4" d="M450.5,758.45h-9.61l-1.59,7.78h-6.82L441.19,730h9.27l8.46,36.24h-6.78Zm-1.37-6.35-3.56-16.65-3.39,16.65Z" transform="translate(-57.94 -630.56)"/><path class="cls-4" d="M481.15,759.82v6.41H462.61V730H469v29.83Z" transform="translate(-57.94 -630.56)"/><path class="cls-4" d="M501.83,766.23H495.4V730h6.43Z" transform="translate(-57.94 -630.56)"/><path class="cls-4" d="M531.92,730v36.24H525l-10.22-23.16v23.16h-6.43V730h6.91l10.21,23.53V730Z" transform="translate(-57.94 -630.56)"/><path class="cls-4" d="M548.4,729.47q7,0,10,4.17t3,14.1q0,10.35-3.09,14.68t-10.43,4.33a85.82,85.82,0,0,1-9.4-.52V730A91.09,91.09,0,0,1,548.4,729.47Zm-.3,30.87a7.55,7.55,0,0,0,4-.86,5.51,5.51,0,0,0,2.1-3.34,34.37,34.37,0,0,0,.71-8.4c0-1.82-.06-3.5-.17-5a13.14,13.14,0,0,0-.78-3.81,4.58,4.58,0,0,0-1.82-2.26,7.37,7.37,0,0,0-3.76-.76l-3.47.11v24.31Z" transform="translate(-57.94 -630.56)"/><path class="cls-4" d="M589.13,730v22.63a34.9,34.9,0,0,1-.43,5.52,12.59,12.59,0,0,1-1.61,4.54,7.92,7.92,0,0,1-3.39,3,14.22,14.22,0,0,1-6.12,1.08,16.58,16.58,0,0,1-5.17-.66,9.11,9.11,0,0,1-3.33-1.91,9.31,9.31,0,0,1-2.27-4,25,25,0,0,1-.9-7.59V730h6.44v22.63a23,23,0,0,0,.34,4.18,4.09,4.09,0,0,0,1.5,2.7,6,6,0,0,0,3.52.84q3.18,0,4.08-1.83a14.25,14.25,0,0,0,.9-5.89V730Z" transform="translate(-57.94 -630.56)"/><path class="cls-4" d="M605.35,729.47a30.45,30.45,0,0,1,4.1.31c1.53.21,2.88.46,4,.74l-.38,5.83q-6.23-.52-8-.48a6,6,0,0,0-3.54.76,3.52,3.52,0,0,0-1,2.87,6.19,6.19,0,0,0,.26,1.86,2.91,2.91,0,0,0,1.14,1.45,20.65,20.65,0,0,0,4,1.78,32.44,32.44,0,0,1,5.6,2.44,7,7,0,0,1,2.75,3,15.22,15.22,0,0,1,.88,6,17.48,17.48,0,0,1-.86,6,6.52,6.52,0,0,1-3,3.49q-2.16,1.22-6.59,1.21a48.47,48.47,0,0,1-10.12-1l.38-6c4.64.46,7.87.68,9.7.68a4.32,4.32,0,0,0,3.07-.86c.59-.58.88-1.67.88-3.28a4.9,4.9,0,0,0-.26-1.66,2.86,2.86,0,0,0-1.24-1.34,33.57,33.57,0,0,0-4.77-2.05,22.69,22.69,0,0,1-5-2.41,7.3,7.3,0,0,1-2.53-3.13,15.68,15.68,0,0,1-.81-5.8,15,15,0,0,1,1-5.88,6.59,6.59,0,0,1,3.31-3.33A16.81,16.81,0,0,1,605.35,729.47Z" transform="translate(-57.94 -630.56)"/><path class="cls-4" d="M641.31,736.4h-8.62v29.83h-6.44V736.4h-8.63V730h23.69Z" transform="translate(-57.94 -630.56)"/><path class="cls-4" d="M660.11,766.23l-4.33-12.61h-4.43v12.61h-6.43V730a83.61,83.61,0,0,1,10.21-.52q6.23,0,8.86,2.73t2.64,9.13a18,18,0,0,1-1.22,7.3,7.58,7.58,0,0,1-3.88,3.94l5.88,13.66Zm-8.76-19H656a3.53,3.53,0,0,0,3.11-1.32,7.83,7.83,0,0,0,.92-4.36,8,8,0,0,0-.9-4.38,3.61,3.61,0,0,0-3.18-1.29l-4.55.06Z" transform="translate(-57.94 -630.56)"/><path class="cls-4" d="M685.13,752.15v14.08h-6.44V752.15L669.12,730H676l6,15.6L688,730h6.83Z" transform="translate(-57.94 -630.56)"/><path class="cls-4" d="M727.32,759.82v6.41H708.78V730h6.44v29.83Z" transform="translate(-57.94 -630.56)"/><path class="cls-4" d="M750.58,736.4H742v29.83h-6.43V736.4h-8.63V730h23.69Z" transform="translate(-57.94 -630.56)"/><path class="cls-4" d="M764.14,729.47q7,0,10,4.17t3,14.1q0,10.35-3.09,14.68t-10.43,4.33a85.82,85.82,0,0,1-9.4-.52V730A91.09,91.09,0,0,1,764.14,729.47Zm-.3,30.87a7.53,7.53,0,0,0,4-.86,5.51,5.51,0,0,0,2.1-3.34,33.86,33.86,0,0,0,.71-8.4c0-1.82-.06-3.5-.17-5a12.84,12.84,0,0,0-.77-3.81,4.6,4.6,0,0,0-1.83-2.26,7.31,7.31,0,0,0-3.75-.76l-3.48.11v24.31Z" transform="translate(-57.94 -630.56)"/><path class="cls-4" d="M784.61,758.51a3.41,3.41,0,0,1,2.71.84,5.61,5.61,0,0,1,.68,3.3,5.53,5.53,0,0,1-.68,3.29,3.49,3.49,0,0,1-2.71.81,3.4,3.4,0,0,1-2.68-.81,5.63,5.63,0,0,1-.67-3.29,5.71,5.71,0,0,1,.67-3.3A3.32,3.32,0,0,1,784.61,758.51Z" transform="translate(-57.94 -630.56)"/><g class="cls-5"><path class="cls-6" d="M118.45,711.81a14.37,14.37,0,0,1,11.82-16.71,14.75,14.75,0,0,1,17.23,11.46,14.38,14.38,0,0,1-11.82,16.72,14.75,14.75,0,0,1-17.23-11.47" transform="translate(-57.94 -630.56)"/></g><g class="cls-7"><path class="cls-6" d="M205.8,672.23a3.77,3.77,0,0,0-.15-1,7.15,7.15,0,0,0-.27-1l-.42-.94-.11-.2-.07-.09-.12-.18-.25-.36a5,5,0,0,0-.68-.79,5.35,5.35,0,0,0-.82-.72l-.85-.6-.9-.47a16.73,16.73,0,0,0-1.88-.75c-.63-.15-1.27-.37-1.92-.47a34.36,34.36,0,0,0-7.77-.45,65.16,65.16,0,0,0-7.74.84,127,127,0,0,0-15.36,3.61c-4.07,1.23-8.11,2.64-12.14,4.17-.47-3.56-1-7.08-1.71-10.56a115.81,115.81,0,0,0-3.82-14.37,58.43,58.43,0,0,0-2.76-6.81,31.9,31.9,0,0,0-3.87-6.28,14.8,14.8,0,0,0-2.77-2.64,8.53,8.53,0,0,0-3.73-1.56l-.52,0-.26,0h-.35l-.87.08a7.69,7.69,0,0,0-2,.6,10.9,10.9,0,0,0-3.07,2.15,24.27,24.27,0,0,0-4,5.52,49.55,49.55,0,0,0-2.71,5.86,91.33,91.33,0,0,0-3.59,11.56,190.93,190.93,0,0,0-3.76,20.7l0,.21L110.82,676a180.32,180.32,0,0,0-21-5.83,91.11,91.11,0,0,0-12.41-1.76,51.39,51.39,0,0,0-6.68,0,22.37,22.37,0,0,0-6.88,1.49,11.4,11.4,0,0,0-3.21,2l-.69.7a4.13,4.13,0,0,0-.61.77l-.27.42-.13.21-.07.11-.1.19-.33.79a4.9,4.9,0,0,0-.28,1,5.72,5.72,0,0,0-.18,1l-.06,1c0,.32,0,.64.06,1a14.31,14.31,0,0,0,.88,3.69c1.83,4.67,5,8.58,8.37,12.27a122.8,122.8,0,0,0,19.5,16.47c-1.63,1.33-3.25,2.67-4.82,4a120.58,120.58,0,0,0-11,11,60.07,60.07,0,0,0-4.68,6,31.37,31.37,0,0,0-3.57,6.72c-.24.58-.37,1.23-.56,1.84a14.1,14.1,0,0,0-.29,2,8.17,8.17,0,0,0,.61,4l.23.47.11.23.06.12.12.18.53.7.75.76.41.37.42.28a11.51,11.51,0,0,0,3.53,1.59,26,26,0,0,0,7.17.68,53.28,53.28,0,0,0,6.8-.67,100.43,100.43,0,0,0,12.5-2.9,198.28,198.28,0,0,0,18.68-6.65c.54,5,1.3,10.46,2.45,16.22A90.28,90.28,0,0,0,119.27,770a47.15,47.15,0,0,0,2.46,6,24,24,0,0,0,3.8,5.68,10.61,10.61,0,0,0,3,2.26,7.77,7.77,0,0,0,1.9.67l1,.13H132l.44,0a10.75,10.75,0,0,0,6.7-3.95,31,31,0,0,0,4.13-6.11,57.74,57.74,0,0,0,3-6.7,115.43,115.43,0,0,0,4.41-14.21c.87-3.54,1.58-7.13,2.21-10.76a127,127,0,0,0,26,5c5.07.31,10.2.33,15.13-1.2a14.92,14.92,0,0,0,3.52-1.67,10.23,10.23,0,0,0,1.56-1.24,8.23,8.23,0,0,0,1.24-1.58l.25-.43.13-.22.08-.19,0-.1.3-.8c.09-.27.15-.66.22-1a3.9,3.9,0,0,0,.11-1,11,11,0,0,0-.46-3.65c-1.43-4.57-4.36-8.06-7.18-11.25a90.33,90.33,0,0,0-9.06-8.41c-3.31-2.67-6.57-5.08-9.73-7.28,4.52-3.27,9.33-7,14.25-11.35a96.81,96.81,0,0,0,8.94-9,52,52,0,0,0,4.06-5.34,24.25,24.25,0,0,0,3-6.33,10.82,10.82,0,0,0,.39-3.75m-57.62,52.95,2.71-1.56c-.35,4.7-.82,9.36-1.38,14-4.8-1.66-9.6-3.45-14.36-5.39,2.56-1.31,4.65-2.43,6.21-3.26l3.42-1.88-3.43,1.85c-1.59.83-3.7,2-6.3,3.25-4.78-1.95-9.53-4-14.19-6.29-2.82-1.32-5.59-2.71-8.35-4.12l0-.43c-.16-4.48-.16-8-.16-10.41s0-3.68,0-3.68,0,1.28-.07,3.68,0,5.93.07,10.41l0,.36c-6.42-3.31-12.68-6.87-18.71-10.6,1.07-.78,2.14-1.55,3.23-2.31,5.09-3.55,10.36-7,15.74-10.25-.09,2-.15,3.69-.2,5,0,2.41-.08,3.69-.08,3.69s0-1.28.11-3.69c.06-1.34.13-3,.25-5.07,3.73-2.27,7.52-4.49,11.38-6.6s7.57-4.09,11.41-6l.81.36,3.45,1.59-3.44-1.62-.78-.36c5-2.51,10.1-4.87,15.2-7.09q.6,7.44.82,15c-3.52-1.88-6.36-3.28-8.36-4.26l-3.44-1.65,3.42,1.67c2,1,4.86,2.44,8.38,4.36.13,4.71.15,9.43,0,14.17-.08,5.19-.33,10.37-.71,15.54l-2.73,1.59-3.39,1.92Zm-18.41,9.56c-3.93,1.87-8.57,4-13.92,6.07l-1.73.67c-.17-1.37-.34-2.71-.49-4-.43-3.84-.7-7.39-.89-10.6q3,1.54,6.09,3Q124.26,732.43,129.77,734.74Zm-16.68-41.65c.33-4.32.82-9.54,1.72-15.45,4.43,1.5,8.32,3,11.63,4.35,1.37.55,2.64,1.08,3.81,1.58q-4.25,2.16-8.42,4.43C118.88,689.65,116,691.36,113.09,693.09Zm43.07,3.31c3.27,1.86,6.93,4.05,10.83,6.64,2.32,1.54,4.75,3.2,7.24,5l-2.52,1.88c-5.28,3.92-10.11,7-14.12,9.56l-2,1.24q.43-6.3.61-12.65C156.26,704.2,156.26,700.3,156.16,696.4Zm-41.27-19.31a158.5,158.5,0,0,1,4.38-20.5,91.69,91.69,0,0,1,4-11.25,46.3,46.3,0,0,1,2.85-5.56,22.31,22.31,0,0,1,3.9-4.93,8.78,8.78,0,0,1,2.53-1.64l.65-.22a4.41,4.41,0,0,1,.64-.14l.86-.05h0l.09,0,.17,0,.34,0a8.37,8.37,0,0,1,4.78,3.52,28.77,28.77,0,0,1,3.29,5.86,56.47,56.47,0,0,1,2.35,6.59A114,114,0,0,1,148.86,663q.91,5.65,1.51,11.45c-6.78,2.69-13.46,5.78-20,9.12-1.19-.52-2.47-1.06-3.86-1.64-3.32-1.36-7.22-2.9-11.64-4.5Zm-34,25.23a105.86,105.86,0,0,1-11.26-9.54c-3.38-3.38-6.51-7-8.27-11a12.2,12.2,0,0,1-.86-3l-.08-.75,0-.74.08-.67a2.38,2.38,0,0,1,.16-.7l.28-.76,0,0,0-.08.09-.15.18-.31.43-.58.48-.55a9.81,9.81,0,0,1,2.55-1.68,20.42,20.42,0,0,1,6.22-1.59,49.62,49.62,0,0,1,6.43-.27,90.79,90.79,0,0,1,12.29,1.26,153.76,153.76,0,0,1,21,5.22c1.3.4,2.55.81,3.76,1.22-.73,6-1.19,11.26-1.5,15.62v0c-6.41,3.86-12.65,7.93-18.57,12.31-1.47,1.08-2.91,2.18-4.34,3.29C86.89,706.69,83.81,704.54,80.84,702.32Zm13.91,45.47a99.86,99.86,0,0,1-12.43,2.39c-4.3.48-8.94.76-13.17-.46a9.34,9.34,0,0,1-2.81-1.39l-.31-.22-.23-.23-.48-.5-.5-.73-.25-.57a8.29,8.29,0,0,1,.55-6,29.3,29.3,0,0,1,3.5-6,58.24,58.24,0,0,1,4.7-5.57,117.68,117.68,0,0,1,11.14-10.25c1.86-1.53,3.77-3,5.71-4.51l.92.62a215.61,215.61,0,0,0,21.48,12.44c.15,3.24.37,6.83.69,10.73.12,1.35.25,2.74.4,4.16A162,162,0,0,1,94.75,747.79ZM147,752.92a113.43,113.43,0,0,1-3.71,14,55.36,55.36,0,0,1-2.63,6.49,28.65,28.65,0,0,1-3.52,5.73,11.86,11.86,0,0,1-2.29,2.2l-.63.42-.66.32-.62.23a2.42,2.42,0,0,1-.69.16,4.61,4.61,0,0,1-2.79-.43,8.53,8.53,0,0,1-2.46-1.73,22.4,22.4,0,0,1-3.69-5.08,47.43,47.43,0,0,1-2.62-5.67,91.7,91.7,0,0,1-3.54-11.4,141.13,141.13,0,0,1-3-16.21l1.82-.76c5.33-2.27,10-4.43,13.93-6.34,6.12,2.55,12.31,4.86,18.58,6.81l.44.13C148.4,745.52,147.74,749.25,147,752.92ZM184.16,716a90.87,90.87,0,0,1,8.58,8.63c2.62,3.19,5.28,6.76,6.34,10.8a8.74,8.74,0,0,1,.26,3l-.1.68-.16.66-.33.79,0,.1h0l-.1.15-.19.3a6,6,0,0,1-.93,1.1,7.88,7.88,0,0,1-1.23.89,12.26,12.26,0,0,1-3,1.25c-4.32,1.18-9.22,1-14,.52a108,108,0,0,1-14.67-2.76c-3.66-.9-7.33-2-11-3.12l0-.13c.93-5.92,1.56-11.93,2-18l2.07-1.26c4-2.49,8.86-5.6,14.27-9.36l2.68-1.91C177.74,710.61,181,713.13,184.16,716Zm19.26-40.47c-1.07,4.15-3.69,7.89-6.3,11.23a97,97,0,0,1-8.46,9.16,154.69,154.69,0,0,1-13.94,11.79c-2.59-1.79-5.11-3.43-7.52-4.94-4-2.51-7.74-4.66-11-6.51-.16-6.35-.54-12.69-1.26-18.94l0-.29c4.26-1.75,8.54-3.35,12.81-4.8a123.07,123.07,0,0,1,14.77-4.07,60.45,60.45,0,0,1,7.34-1.08,31.74,31.74,0,0,1,7.11.13c.58.06,1.1.24,1.66.34a12.17,12.17,0,0,1,1.54.55l.72.33.64.42.54.43a2.37,2.37,0,0,1,.51.53C203.83,671.32,203.88,673.44,203.42,675.5Z" transform="translate(-57.94 -630.56)"/></g><g class="cls-5"><path class="cls-8" d="M168.27,668.89a8.92,8.92,0,0,1,7.34-10.38,9.16,9.16,0,0,1,10.7,7.12A8.92,8.92,0,0,1,179,676a9.16,9.16,0,0,1-10.7-7.12" transform="translate(-57.94 -630.56)"/><path class="cls-8" d="M66,671.29A8.93,8.93,0,0,1,73.3,660.9,9.16,9.16,0,0,1,84,668a8.92,8.92,0,0,1-7.34,10.38A9.17,9.17,0,0,1,66,671.29" transform="translate(-57.94 -630.56)"/><path class="cls-8" d="M134.48,771.84a8.92,8.92,0,0,1,7.34-10.38,9.16,9.16,0,0,1,10.7,7.12A8.93,8.93,0,0,1,145.18,779a9.16,9.16,0,0,1-10.7-7.13" transform="translate(-57.94 -630.56)"/><path class="cls-8" d="M135.49,703.72a17.66,17.66,0,0,1,7.61.31A11.49,11.49,0,0,0,130.74,698a10.94,10.94,0,0,0-8.06,15.94,17.12,17.12,0,0,1,12.81-10.18" transform="translate(-57.94 -630.56)"/></g><path class="cls-9" d="M77.23,673H73.17l-.55,1.23H69.46l5.05-10.67h1.37l5.06,10.67H77.77Zm-.92-2-1.11-2.5L74.08,671Z" transform="translate(-57.94 -630.56)"/><path class="cls-9" d="M171.76,667a5.68,5.68,0,0,1,6-5.52,6.42,6.42,0,0,1,4,1.59l-1.66,2.07a3.73,3.73,0,0,0-2.35-1,2.85,2.85,0,1,0-.06,5.69,3.7,3.7,0,0,0,2.42-1l1.65,2.13a6.11,6.11,0,0,1-4.07,1.55A5.69,5.69,0,0,1,171.76,667Z" transform="translate(-57.94 -630.56)"/><path class="cls-9" d="M142.1,765.08H145v10.55H142.1Z" transform="translate(-57.94 -630.56)"/></svg>